<svg xmlns="http://www.w3.org/2000/svg" viewBox="0 0 1200 800" role="img" aria-label="Teacher scoreboard illustration">
  <defs>
    <linearGradient id="bg" x1="0" y1="0" x2="1" y2="1">
      <stop offset="0%" stop-color="#0f172a"/>
      <stop offset="55%" stop-color="#1e293b"/>
      <stop offset="100%" stop-color="#334155"/>
    </linearGradient>
    <linearGradient id="field" x1="0" y1="0" x2="0" y2="1">
      <stop offset="0%" stop-color="#16a34a"/>
      <stop offset="100%" stop-color="#166534"/>
    </linearGradient>
  </defs>
  <rect width="1200" height="800" fill="url(#bg)"/>
  <circle cx="980" cy="140" r="130" fill="#f97316" opacity=".18"/>
  <circle cx="180" cy="640" r="180" fill="#38bdf8" opacity=".14"/>
  <rect x="70" y="120" width="1060" height="560" rx="32" fill="#0b1220" opacity=".72" stroke="#334155" stroke-width="4"/>
  <rect x="110" y="160" width="1040" height="280" rx="24" fill="url(#field)"/>
  <path d="M110 300h1040" stroke="#d1fae5" stroke-width="6" opacity=".5"/>
  <path d="M380 160v280" stroke="#d1fae5" stroke-width="6" opacity=".35"/>
  <path d="M820 160v280" stroke="#d1fae5" stroke-width="6" opacity=".35"/>
  <circle cx="600" cy="300" r="84" fill="none" stroke="#d1fae5" stroke-width="6" opacity=".5"/>
  <rect x="150" y="470" width="900" height="160" rx="22" fill="#111827" stroke="#1f2937" stroke-width="3"/>
  <rect x="180" y="500" width="220" height="24" rx="12" fill="#ef4444"/>
  <rect x="180" y="540" width="420" height="18" rx="9" fill="#334155"/>
  <rect x="180" y="572" width="340" height="18" rx="9" fill="#475569"/>
  <rect x="720" y="500" width="280" height="24" rx="12" fill="#f59e0b"/>
  <rect x="720" y="540" width="200" height="18" rx="9" fill="#334155"/>
  <text x="180" y="238" fill="#fff" font-family="Arial, sans-serif" font-size="44" font-weight="700">Live Ranking</text>
  <text x="180" y="288" fill="#e2e8f0" font-family="Arial, sans-serif" font-size="24">Teacher score entry in progress</text>
  <text x="178" y="632" fill="#cbd5e1" font-family="Arial, sans-serif" font-size="22">Fast updates from the field</text>
</svg>
